<svg width="552" height="363" viewBox="0 0 552 363" fill="none" xmlns="http://www.w3.org/2000/svg">
<g clip-path="url(#clip0)">
<path d="M536.551 206.649L436.6 291.802L414.73 310.431L353.534 310.058L301.308 309.74L296.97 309.714L286.371 297.26L244.233 247.747L223.08 222.889L216.72 215.418L212.12 210.011L201.867 197.963L185.266 178.459L202.079 164.137L218.136 150.456L229.678 140.624L374.997 16.8223L536.551 206.649Z" fill="#F2F2F2"/>
<path d="M238.364 49.2048H46.8042V187.758H238.364V49.2048Z" fill="#3F3D56"/>
<path d="M459.839 335.483H279.378V336.448H459.839V335.483Z" fill="#3F3D56"/>
<path d="M547.138 309.896H402.695C402.695 309.896 399.767 266.932 417.09 266.444C434.414 265.955 432.462 285.485 454.177 258.632C475.892 231.779 502.243 233.244 505.659 249.111C509.075 264.979 499.072 277.673 517.371 273.767C535.67 269.861 562.022 280.114 547.138 309.896Z" fill="#1C1938"/>
<path d="M472.478 309.906L471.991 309.886C473.128 281.599 479.049 263.424 483.816 253.158C488.992 242.012 493.98 237.5 494.03 237.455L494.354 237.82C494.305 237.864 489.375 242.332 484.241 253.403C479.5 263.625 473.611 281.725 472.478 309.906Z" fill="#F2F2F2"/>
<path d="M524.756 309.965L524.287 309.828C529.928 290.457 543.212 278.226 543.345 278.105L543.673 278.466C543.541 278.587 530.357 290.731 524.756 309.965Z" fill="#F2F2F2"/>
<path d="M425.445 309.93L424.962 309.863C426.876 296.053 423.419 285.339 420.181 278.782C416.676 271.683 412.677 267.806 412.637 267.768L412.975 267.415C413.015 267.454 417.076 271.391 420.619 278.566C423.886 285.184 427.376 295.997 425.445 309.93Z" fill="#F2F2F2"/>
<path d="M552 309.896H20.7483V310.862H552V309.896Z" fill="#3F3D56"/>
<path d="M395.389 19.0273H349.697V75.8249H395.389V19.0273Z" fill="#2F2E41"/>
<path d="M311.967 283.967L305.736 306.825L316.121 314.444L318.89 312.366L323.736 288.816L311.967 283.967Z" fill="#FFB8B8"/>
<path d="M390.197 281.889L388.12 309.595H401.274V283.967L390.197 281.889Z" fill="#FFB8B8"/>
<path d="M348.659 106.648V123.271L374.274 127.427L396.428 118.423L392.274 108.033L348.659 106.648Z" fill="#FFB8B8"/>
<path d="M369.428 120.501L347.274 116.345L341.736 161.367L327.89 217.472C327.89 217.472 307.121 265.265 309.89 276.348L311.275 279.811L309.89 286.045L323.736 291.586L329.275 282.582C329.275 282.582 333.428 288.816 340.351 275.655C347.274 262.495 376.351 180.762 376.351 180.762L381.197 194.615C379.944 198.888 379.707 203.394 380.505 207.775C381.889 214.702 383.274 236.174 383.274 236.174C383.274 236.174 375.659 273.577 386.043 276.348L388.12 284.66L402.659 286.045L405.428 277.733C405.428 277.733 419.274 272.885 415.812 248.642C412.351 224.399 410.966 144.744 410.966 144.744L397.327 111.099L369.428 120.501Z" fill="#2F2E41"/>
<path d="M309.89 305.439C309.89 305.439 306.429 302.669 305.044 303.361C303.659 304.054 289.121 322.755 289.121 322.755C289.121 322.755 273.89 334.531 284.967 335.916C296.044 337.301 326.505 322.063 326.505 318.6C326.505 315.136 320.105 306.463 320.105 306.463C320.105 306.463 315.428 310.288 309.89 305.439Z" fill="#2F2E41"/>
<path d="M386.736 303.361C386.736 303.361 399.197 302.587 401.274 304.706C403.351 306.825 402.659 317.214 402.659 317.214C402.659 317.214 404.043 335.916 392.966 335.916C381.89 335.916 384.659 323.448 384.659 323.448L386.736 303.361Z" fill="#2F2E41"/>
<path d="M374.274 45.6944C383.833 45.6944 391.582 37.9416 391.582 28.3781C391.582 18.8145 383.833 11.0618 374.274 11.0618C364.715 11.0618 356.967 18.8145 356.967 28.3781C356.967 37.9416 364.715 45.6944 374.274 45.6944Z" fill="#FFB8B8"/>
<path d="M362.851 39.1143C362.851 39.1143 372.543 50.8894 353.159 59.8938C333.774 68.8983 367.005 106.302 367.005 106.302C367.005 106.302 405.774 91.7559 402.312 63.3571C402.312 63.3571 378.774 59.2012 384.313 39.8069L362.851 39.1143Z" fill="#FFB8B8"/>
<path d="M352.467 59.201C352.467 59.201 336.544 57.123 335.851 70.2834C335.159 83.4438 335.851 115.306 335.851 115.306C335.851 115.306 328.928 143.012 332.39 167.255C332.39 167.255 328.236 195.654 339.313 194.268C350.39 192.883 342.082 165.177 342.082 165.177L346.928 120.154L344.851 86.9071L353.851 66.8202L352.467 59.201Z" fill="#FFB8B8"/>
<path d="M398.293 62.2612C398.293 62.2612 413.389 61.9718 414.082 73.0543C414.774 84.1367 409.235 118.077 409.235 118.077L400.928 122.233L393.312 98.6824L398.293 62.2612Z" fill="#FFB8B8"/>
<path d="M402.659 119.115L401.274 122.579L405.428 132.968C405.428 132.968 388.812 146.129 390.197 148.9C391.582 151.67 399.197 145.436 399.197 145.436L410.274 150.977C410.274 150.977 419.274 141.28 415.12 132.276C410.966 123.271 409.362 117.291 409.362 117.291C409.362 117.291 403.351 117.037 402.659 119.115Z" fill="#FFB8B8"/>
<path d="M349.351 56.7769L347.274 79.6344C347.274 79.6344 337.582 89.3315 348.659 102.492L347.274 112.882C347.274 112.882 372.89 111.496 377.736 112.882C382.582 114.267 397.548 111.766 397.548 111.766L397.812 103.877C397.812 103.877 404.736 94.1801 402.659 79.6344C400.582 65.0887 402.659 60.2401 402.659 60.2401L397.812 59.5475C397.812 59.5475 394.697 80.6734 373.236 82.7513C373.236 82.7513 346.582 85.1756 354.197 56.7769H349.351Z" fill="#1C1938"/>
<path d="M376.005 0.325622C376.005 0.325622 358.005 -0.790797 353.851 10.408C349.697 21.6068 342.428 27.4862 342.428 27.4862C342.428 27.4862 330.978 35.4498 336.703 49.666C336.703 49.666 318.89 61.6425 330.659 72.2813C330.659 72.2813 329.967 82.9202 336.89 90.1994C336.89 90.1994 342.428 92.9991 340.351 94.6789C338.274 96.3587 354.197 95.2389 352.813 80.1205C351.428 65.0021 360.774 54.3525 360.774 54.3525C360.774 54.3525 351.774 34.751 355.928 28.0317C358.45 23.9522 359.533 20.9099 361.627 19.1492C362.793 18.1921 363.874 17.1363 364.859 15.9935C365.79 14.8158 367.054 13.9465 368.487 13.4995C369.92 13.0524 371.454 13.0483 372.889 13.4877C379.12 15.1675 380.505 20.2069 380.505 20.2069C380.505 20.2069 385.005 32.2456 392.62 37.845C400.235 43.4444 386.736 53.2434 386.736 53.2434C386.736 53.2434 389.082 64.7802 395.178 71.6104C401.274 78.4407 393.421 84.3944 392.966 85.1599C391.928 86.9072 387.781 97.9408 404.912 97.9897C404.912 97.9897 408.889 89.6395 414.428 84.6C419.966 79.5605 415.812 65.0021 415.812 65.0021C415.812 65.0021 424.12 59.9627 415.12 47.644C415.12 47.644 417.889 36.4452 410.274 29.166C410.274 29.166 399.543 -3.59395 376.005 0.325622Z" fill="#2F2E41"/>
<path d="M355.582 30.8025C356.538 30.8025 357.313 29.562 357.313 28.0318C357.313 26.5017 356.538 25.2612 355.582 25.2612C354.626 25.2612 353.851 26.5017 353.851 28.0318C353.851 29.562 354.626 30.8025 355.582 30.8025Z" fill="#FFB8B8"/>
<path d="M286.133 362.517H0.482584C0.482584 362.517 -5.30763 277.551 28.9511 276.586C63.2099 275.62 59.3497 314.241 102.294 261.137C145.238 208.033 197.35 210.93 204.105 242.31C210.86 273.689 191.077 298.793 227.266 291.068C263.455 283.344 315.566 303.62 286.133 362.517Z" fill="#1C1938"/>
<path d="M138.486 362.537L137.522 362.498C139.77 306.557 151.48 270.614 160.908 250.313C171.144 228.27 181.007 219.346 181.106 219.259L181.747 219.98C181.65 220.067 171.901 228.902 161.747 250.796C152.372 271.011 140.726 306.806 138.486 362.537Z" fill="#F2F2F2"/>
<path d="M241.87 362.652L240.943 362.382C252.099 324.074 278.368 299.886 278.633 299.646L279.281 300.361C279.019 300.599 252.946 324.615 241.87 362.652Z" fill="#F2F2F2"/>
<path d="M45.4736 362.584L44.5175 362.451C48.3023 335.141 41.4658 313.952 35.0639 300.986C28.1322 286.948 20.2232 279.28 20.144 279.204L20.8117 278.507C20.8921 278.584 28.9233 286.37 35.9291 300.559C42.3907 313.646 49.2921 335.031 45.4736 362.584Z" fill="#F2F2F2"/>
<path d="M403.867 362.035H0V363H403.867V362.035Z" fill="#3F3D56"/>
<path d="M272.622 188.24H46.3218V8.65283H272.622V188.24ZM47.2868 187.275H271.657V9.61836H47.2868V187.275Z" fill="#3F3D56"/>
<path d="M66.1049 90.7225C70.6352 90.7225 74.3077 87.0481 74.3077 82.5155C74.3077 77.983 70.6352 74.3086 66.1049 74.3086C61.5746 74.3086 57.9021 77.983 57.9021 82.5155C57.9021 87.0481 61.5746 90.7225 66.1049 90.7225Z" fill="#1C1938"/>
<path d="M89.2658 90.7225C93.7961 90.7225 97.4686 87.0481 97.4686 82.5155C97.4686 77.983 93.7961 74.3086 89.2658 74.3086C84.7355 74.3086 81.063 77.983 81.063 82.5155C81.063 87.0481 84.7355 90.7225 89.2658 90.7225Z" fill="#D0CDE1"/>
<path opacity="0.5" d="M112.427 90.7225C116.957 90.7225 120.629 87.0481 120.629 82.5155C120.629 77.983 116.957 74.3086 112.427 74.3086C107.896 74.3086 104.224 77.983 104.224 82.5155C104.224 87.0481 107.896 90.7225 112.427 90.7225Z" fill="#1C1938"/>
<path d="M135.587 90.7225C140.118 90.7225 143.79 87.0481 143.79 82.5155C143.79 77.983 140.118 74.3086 135.587 74.3086C131.057 74.3086 127.385 77.983 127.385 82.5155C127.385 87.0481 131.057 90.7225 135.587 90.7225Z" fill="#F2F2F2"/>
<path d="M226.783 78.6533H159.231V86.3775H226.783V78.6533Z" fill="#F2F2F2"/>
<path d="M138.965 159.274C151.223 159.274 161.161 149.332 161.161 137.067C161.161 124.803 151.223 114.86 138.965 114.86C126.707 114.86 116.769 124.803 116.769 137.067C116.769 149.332 126.707 159.274 138.965 159.274Z" fill="#F2F2F2"/>
<path d="M139.057 143.753L127.95 132.64C127.588 132.278 127.385 131.787 127.385 131.274C127.385 130.762 127.588 130.271 127.95 129.909C128.312 129.547 128.803 129.343 129.315 129.343C129.827 129.343 130.318 129.547 130.68 129.909L138.873 138.106L165.017 108.277C165.185 108.086 165.388 107.93 165.615 107.818C165.842 107.706 166.089 107.64 166.342 107.623C166.595 107.607 166.849 107.64 167.089 107.722C167.329 107.803 167.551 107.931 167.741 108.098C167.932 108.265 168.087 108.469 168.2 108.696C168.312 108.923 168.378 109.171 168.394 109.424C168.411 109.677 168.378 109.931 168.296 110.171C168.215 110.411 168.087 110.633 167.92 110.823L139.057 143.753Z" fill="#1C1938"/>
</g>
<defs>
<clipPath id="clip0">
<rect width="552" height="363" fill="white"/>
</clipPath>
</defs>
</svg>
